<svg width="100" height="100" viewBox="0 0 100 100" fill="none" xmlns="http://www.w3.org/2000/svg">
<circle cx="50" cy="50" r="45" fill="#5A7301" stroke="#DBFF63" stroke-width="10"/>
<path d="M79.7314 9.79883C92.0278 18.9078 100 33.5222 100 50C100 77.6142 77.6142 100 50 100C33.4166 100 18.7212 91.9249 9.625 79.4941L13.4346 66.2363C19.6606 80.2368 33.6894 90 50 90C72.0914 90 90 72.0914 90 50C90 33.4332 79.9284 19.2189 65.5742 13.1455L79.7314 9.79883Z" fill="#95C200"/>
<path d="M42.01 20.0779C42.3569 19.9853 42.721 19.9749 43.0724 20.0486C43.4236 20.1222 43.7527 20.2776 44.033 20.5016L49.3763 24.77H50.6149L55.9435 20.5163C56.2238 20.2916 56.5536 20.1353 56.9052 20.0611C57.2565 19.9871 57.6205 19.9972 57.9675 20.0895C60.6023 20.7913 63.1325 21.8389 65.4922 23.2052C65.8013 23.3841 66.0648 23.6324 66.2609 23.931C66.457 24.2296 66.5804 24.5703 66.6217 24.9252L67.4239 31.7419C67.7144 32.0171 68.0011 32.3038 68.2839 32.6019L75.0839 33.358C75.4383 33.399 75.7785 33.5222 76.077 33.7177C76.3756 33.9133 76.6245 34.1767 76.8038 34.4854C78.1725 36.844 79.2216 39.3747 79.9227 42.01C80.0153 42.3569 80.0247 42.7211 79.951 43.0724C79.8773 43.4237 79.7221 43.7526 79.498 44.033L75.2212 49.3763C75.2327 49.7891 75.2327 50.2021 75.2212 50.6149L79.4749 55.9435C79.6996 56.2238 79.8559 56.5536 79.93 56.9052C80.0041 57.2565 79.995 57.6205 79.9028 57.9675C79.201 60.6023 78.1523 63.1326 76.7859 65.4922C76.6071 65.8013 76.3588 66.0648 76.0602 66.2609C75.7616 66.457 75.4208 66.5804 75.066 66.6217L68.2503 67.4239C67.9753 67.7143 67.6883 68.0012 67.3904 68.2839L66.6332 75.0839C66.5922 75.4384 66.469 75.7785 66.2735 76.077C66.0779 76.3756 65.8155 76.6246 65.5068 76.8038C63.1482 78.1726 60.6176 79.2216 57.9822 79.9227C57.6353 80.0154 57.2713 80.0247 56.9198 79.951C56.5683 79.8773 56.2387 79.7222 55.9582 79.498L50.6149 75.2213C50.2021 75.2327 49.7891 75.2327 49.3763 75.2213L44.0477 79.4749C43.7675 79.6996 43.4385 79.8558 43.0871 79.9301C42.7355 80.0042 42.3709 79.9951 42.0237 79.9028C39.3889 79.201 36.8586 78.1523 34.499 76.786C34.1901 76.6071 33.9273 76.3586 33.7313 76.0602C33.5353 75.7616 33.4108 75.4209 33.3695 75.066L32.5756 68.2493C32.2872 67.9742 32.0003 67.6873 31.7157 67.3893L24.9168 66.6332C24.5623 66.5922 24.2221 66.4689 23.9236 66.2735C23.6251 66.078 23.3761 65.8154 23.1968 65.5069C21.828 63.1482 20.779 60.6176 20.0779 57.9822C19.9853 57.6354 19.975 57.2712 20.0486 56.9198C20.1222 56.5684 20.2774 56.2387 20.5016 55.9582L24.7699 50.6149V49.3763L20.5163 44.0477C20.2916 43.7676 20.1364 43.4384 20.0622 43.0871C19.988 42.7356 19.9971 42.3709 20.0895 42.0237C20.7913 39.389 21.8389 36.8586 23.2052 34.499C23.384 34.1901 23.6326 33.9274 23.931 33.7314C24.2296 33.5353 24.5703 33.4108 24.9252 33.3695L31.7419 32.5872C32.017 32.2987 32.3038 32.0119 32.6019 31.7272L33.358 24.9168C33.3989 24.5624 33.5223 24.2221 33.7177 23.9236C33.9133 23.625 34.1767 23.3761 34.4854 23.1969C36.8446 21.8292 39.375 20.7803 42.01 20.0779Z" fill="#DBFF63"/>
<path d="M56.9053 20.0615C57.2566 19.9875 57.6207 19.9976 57.9678 20.0898C60.6024 20.7917 63.1327 21.8388 65.4922 23.2051C65.8013 23.384 66.0647 23.6331 66.2607 23.9316C66.4567 24.2302 66.5808 24.571 66.6221 24.9258L67.4238 31.7422C67.7143 32.0174 68.0014 32.3044 68.2842 32.6025L75.084 33.3584C75.4384 33.3994 75.7787 33.5223 76.0771 33.7178C76.3757 33.9133 76.6245 34.1768 76.8037 34.4854C78.1724 36.844 79.2218 39.3754 79.9229 42.0107C80.0153 42.3573 80.0247 42.7212 79.9512 43.0723C79.8775 43.4235 79.7221 43.7528 79.498 44.0332L75.2217 49.377C75.2331 49.7896 75.2331 50.2026 75.2217 50.6152L79.4746 55.9434C79.6993 56.2236 79.8555 56.5538 79.9297 56.9053C80.0038 57.2566 79.9946 57.6207 79.9023 57.9678C79.2005 60.6024 78.1524 63.1327 76.7861 65.4922C76.6073 65.8012 76.3589 66.0647 76.0605 66.2607C75.7621 66.4567 75.4211 66.5807 75.0664 66.6221L68.25 67.4238C67.975 67.7141 67.6886 68.0015 67.3906 68.2842L66.6328 75.084C66.5918 75.4385 66.469 75.7786 66.2734 76.0771C66.0779 76.3756 65.8154 76.6245 65.5068 76.8037C63.1482 78.1725 60.6178 79.2217 57.9824 79.9229C57.6355 80.0155 57.2713 80.0248 56.9199 79.9512C56.5684 79.8775 56.2386 79.7223 55.958 79.498L50.6152 75.2217C50.4103 75.2274 50.205 75.2295 50 75.2295V24.7705H50.6152L55.9434 20.5166C56.2237 20.2919 56.5537 20.1357 56.9053 20.0615Z" fill="#95C200"/>
<path d="M64 50.0001C64 57.7321 57.732 64.0001 50 64.0001C42.268 64.0001 36 57.7321 36 50.0001C36 42.2681 42.268 36.0001 50 36.0001C57.732 36.0001 64 42.2681 64 50.0001Z" fill="#5A7301"/>
<path d="M66.7485 15.8279C67.0381 14.4796 68.9619 14.4796 69.2515 15.8279L70.6547 22.3626C70.7604 22.8549 71.1451 23.2396 71.6374 23.3453L78.1721 24.7485C79.5204 25.0381 79.5204 26.9619 78.1721 27.2515L71.6374 28.6547C71.1451 28.7604 70.7604 29.1451 70.6547 29.6374L69.2515 36.1721C68.9619 37.5204 67.0381 37.5204 66.7485 36.1721L65.3453 29.6374C65.2396 29.1451 64.8549 28.7604 64.3626 28.6547L57.8279 27.2515C56.4796 26.9619 56.4796 25.0381 57.8279 24.7485L64.3626 23.3453C64.8549 23.2396 65.2396 22.8549 65.3453 22.3626L66.7485 15.8279Z" fill="white"/>
</svg>
