<svg width="20" height="20" viewBox="0 0 20 20" fill="none" xmlns="http://www.w3.org/2000/svg">
<g id="bookmark">
<path id="Vector" fill-rule="evenodd" clip-rule="evenodd" d="M3.33398 5.83333C3.33398 4.94928 3.68517 4.10143 4.31029 3.47631C4.93542 2.85119 5.78326 2.5 6.66732 2.5H13.334C14.218 2.5 15.0659 2.85119 15.691 3.47631C16.3161 4.10143 16.6673 4.94928 16.6673 5.83333V15.8708C16.6673 17.2275 15.1048 17.9867 14.0381 17.1492L10.4382 14.32C10.3134 14.222 10.1593 14.1687 10.0007 14.1687C9.84199 14.1687 9.68793 14.222 9.56315 14.32L5.96315 17.1492C4.89648 17.9867 3.33398 17.2267 3.33398 15.8708V5.83333ZM6.66732 4.16667C6.22529 4.16667 5.80137 4.34226 5.48881 4.65482C5.17625 4.96738 5.00065 5.39131 5.00065 5.83333V15.785L8.53398 13.01C8.95231 12.6816 9.46879 12.503 10.0007 12.503C10.5325 12.503 11.049 12.6816 11.4673 13.01L15.0007 15.785V5.83333C15.0007 5.39131 14.8251 4.96738 14.5125 4.65482C14.1999 4.34226 13.776 4.16667 13.334 4.16667H6.66732Z" fill="#595959"/>
</g>
</svg>
