<svg width="28" height="28" viewBox="0 0 28 28" fill="none" xmlns="http://www.w3.org/2000/svg">
<g id="bookmark">
<path id="Vector" fill-rule="evenodd" clip-rule="evenodd" d="M4.66602 8.16667C4.66602 6.92899 5.15768 5.742 6.03285 4.86683C6.90802 3.99167 8.09501 3.5 9.33268 3.5H18.666C19.9037 3.5 21.0907 3.99167 21.9658 4.86683C22.841 5.742 23.3327 6.92899 23.3327 8.16667V22.2192C23.3327 24.1185 21.1452 25.1813 19.6518 24.0088L14.6118 20.048C14.4372 19.9108 14.2215 19.8362 13.9993 19.8362C13.7772 19.8362 13.5615 19.9108 13.3868 20.048L8.34685 24.0088C6.85352 25.1813 4.66602 24.1173 4.66602 22.2192V8.16667ZM9.33268 5.83333C8.71384 5.83333 8.12035 6.07917 7.68277 6.51675C7.24518 6.95434 6.99935 7.54783 6.99935 8.16667V22.099L11.946 18.214C12.5317 17.7542 13.2547 17.5042 13.9993 17.5042C14.744 17.5042 15.467 17.7542 16.0527 18.214L20.9993 22.099V8.16667C20.9993 7.54783 20.7535 6.95434 20.3159 6.51675C19.8783 6.07917 19.2849 5.83333 18.666 5.83333H9.33268Z" fill="#595959"/>
</g>
</svg>
