<svg width="100" height="100" viewBox="0 0 100 100" fill="none" xmlns="http://www.w3.org/2000/svg">
<circle cx="50" cy="50" r="45" fill="#1C6192" stroke="#55B8FF" stroke-width="10"/>
<path d="M79.7314 9.79883C92.0278 18.9078 100 33.5222 100 50C100 77.6142 77.6142 100 50 100C33.4166 100 18.7212 91.9249 9.625 79.4941L13.4346 66.2363C19.6606 80.2368 33.6894 90 50 90C72.0914 90 90 72.0914 90 50C90 33.4332 79.9284 19.2189 65.5742 13.1455L79.7314 9.79883Z" fill="#2194E6"/>
<g filter="url(#filter0_d_1470_478)">
<path d="M74.0215 26.0098C74.4866 26.056 74.9235 26.2623 75.2568 26.5957C75.638 26.9768 75.8525 27.4933 75.8526 28.0322C75.8526 28.5712 75.638 29.0886 75.2568 29.4697L68.9424 35.7842C69.1328 35.9645 69.3238 36.1471 69.5117 36.335C72.1711 38.9705 74.28 42.1085 75.7158 45.5664C77.1517 49.0243 77.8854 52.7334 77.875 56.4775V62.5713C77.875 63.6487 77.4474 64.6825 76.6856 65.4443C75.9237 66.2062 74.8899 66.6338 73.8125 66.6338H25.0625C23.9851 66.6338 22.9513 66.2062 22.1895 65.4443C21.4276 64.6825 21 63.6487 21 62.5713V56.7646C20.9964 52.8491 21.7916 48.9737 23.3369 45.376C24.8824 41.7782 27.1458 38.533 29.9883 35.8398L23.625 29.4775C23.2439 29.0964 23.0303 28.579 23.0303 28.04C23.0303 27.501 23.2439 26.9837 23.625 26.6025C24.0062 26.2214 24.5235 26.0078 25.0625 26.0078L25.2637 26.0176C25.7288 26.0638 26.1666 26.2691 26.5 26.6025L33.1416 33.2451C37.9108 29.8668 43.6096 28.0487 49.4541 28.04C55.2986 28.0314 61.0021 29.8331 65.7813 33.1973L72.3828 26.5957C72.764 26.2146 73.2813 26 73.8203 26L74.0215 26.0098Z" fill="#1DA1FF"/>
</g>
<path d="M74.0215 26.0098C74.4866 26.056 74.9234 26.2623 75.2568 26.5957C75.6379 26.9768 75.8525 27.4933 75.8525 28.0322C75.8525 28.5712 75.638 29.0886 75.2568 29.4697L68.9424 35.7842C69.1328 35.9645 69.3238 36.1471 69.5117 36.335C72.1711 38.9705 74.28 42.1085 75.7158 45.5664C77.1516 49.0243 77.8854 52.7334 77.875 56.4775V62.5713C77.875 63.6487 77.4474 64.6825 76.6855 65.4443C75.9237 66.2062 74.8899 66.6338 73.8125 66.6338H50V28.0439C55.6531 28.1447 61.151 29.9379 65.7812 33.1973L72.3828 26.5957C72.764 26.2146 73.2813 26 73.8203 26L74.0215 26.0098Z" fill="#2194E6"/>
<path d="M60.8615 54.7396C61.1963 54.2386 61.375 53.6495 61.375 53.0469C61.375 52.2388 61.054 51.4638 60.4826 50.8924C59.9112 50.321 59.1362 50 58.3281 50C57.7255 50 57.1364 50.1787 56.6354 50.5135C56.1343 50.8483 55.7438 51.3241 55.5132 51.8809C55.2826 52.4376 55.2222 53.0503 55.3398 53.6413C55.4574 54.2323 55.7475 54.7752 56.1737 55.2013C56.5998 55.6275 57.1427 55.9176 57.7337 56.0352C58.3247 56.1528 58.9374 56.0924 59.4941 55.8618C60.0509 55.6312 60.5267 55.2407 60.8615 54.7396Z" fill="#D0ECFF"/>
<path d="M38.3541 50.5135C38.8552 50.1787 39.4443 50 40.0469 50C40.855 50 41.6299 50.321 42.2013 50.8924C42.7727 51.4638 43.0938 52.2388 43.0938 53.0469C43.0938 53.6495 42.9151 54.2386 42.5803 54.7396C42.2455 55.2407 41.7696 55.6312 41.2129 55.8618C40.6561 56.0924 40.0435 56.1528 39.4525 56.0352C38.8614 55.9176 38.3185 55.6275 37.8924 55.2013C37.4663 54.7752 37.1761 54.2323 37.0585 53.6413C36.941 53.0503 37.0013 52.4376 37.2319 51.8809C37.4625 51.3241 37.8531 50.8483 38.3541 50.5135Z" fill="#D0ECFF"/>
<defs>
<filter id="filter0_d_1470_478" x="11" y="18" width="76.875" height="60.6338" filterUnits="userSpaceOnUse" color-interpolation-filters="sRGB">
<feFlood flood-opacity="0" result="BackgroundImageFix"/>
<feColorMatrix in="SourceAlpha" type="matrix" values="0 0 0 0 0 0 0 0 0 0 0 0 0 0 0 0 0 0 127 0" result="hardAlpha"/>
<feOffset dy="2"/>
<feGaussianBlur stdDeviation="5"/>
<feComposite in2="hardAlpha" operator="out"/>
<feColorMatrix type="matrix" values="0 0 0 0 0 0 0 0 0 0 0 0 0 0 0 0 0 0 0.15 0"/>
<feBlend mode="normal" in2="BackgroundImageFix" result="effect1_dropShadow_1470_478"/>
<feBlend mode="normal" in="SourceGraphic" in2="effect1_dropShadow_1470_478" result="shape"/>
</filter>
</defs>
</svg>
