<svg width="20" height="19" viewBox="0 0 20 19" fill="none" xmlns="http://www.w3.org/2000/svg">
<g id="comment">
<path id="Vector" fill-rule="evenodd" clip-rule="evenodd" d="M2.5168 9.78C2.5168 5.28 6.1693 2.5 10.2201 2.5C14.2635 2.5 17.901 5.26917 17.916 9.7525C17.931 14.2358 14.3585 17.0592 10.2193 17.0592C9.13097 17.0592 8.25847 17.0042 7.20347 16.5842C7.0443 16.5208 6.78097 16.5158 6.52847 16.6008L3.9918 17.445C3.39347 17.625 2.85597 17.3417 2.55597 17.045C2.24347 16.735 1.9668 16.1967 2.13013 15.5933L2.13597 15.57L2.96764 13.0767C3.05097 12.7517 3.05097 12.3767 2.9818 12.185L2.93597 12.0558C2.70514 11.4158 2.5168 10.895 2.5168 9.78ZM10.2201 4.16667C13.5376 4.16667 16.2493 6.3775 16.2493 9.78C16.2493 13.1825 13.5376 15.3925 10.2193 15.3925C9.20264 15.3925 8.58097 15.3392 7.8193 15.0358C7.21097 14.7942 6.53014 14.8425 5.9993 15.0192L3.83597 15.7408L4.56514 13.5558L4.57097 13.5317C4.71097 13.0133 4.77597 12.2525 4.55097 11.6233L4.50097 11.4833C4.29597 10.915 4.1843 10.605 4.1843 9.78C4.1843 6.37833 6.90097 4.16667 10.2201 4.16667Z" fill="#595959"/>
</g>
</svg>
