<svg width="100" height="100" viewBox="0 0 100 100" fill="none" xmlns="http://www.w3.org/2000/svg">
<circle cx="50" cy="50" r="45" fill="#1C878E" stroke="#53D9E3" stroke-width="10"/>
<g filter="url(#filter0_d_1454_1153)">
<path d="M81.4906 43.1445C82.1967 43.9104 82.1967 45.0896 81.4906 45.8555L51.4759 78.4053C50.6839 79.2642 49.3266 79.2642 48.5345 78.4053L18.5199 45.8555C17.8137 45.0896 17.8137 43.9104 18.5199 43.1445L33.1414 27.2884C33.8987 26.4671 34.9649 26 36.082 26H63.9285C65.0456 26 66.1118 26.4671 66.8691 27.2884L81.4906 43.1445Z" fill="#71EFF8"/>
</g>
<path d="M81.9552 44C82.1196 44.6379 81.9656 45.34 81.4903 45.8555L51.4757 78.4053C50.6836 79.264 49.3263 79.2641 48.5343 78.4053L18.5196 45.8555C18.0445 45.3401 17.8904 44.6377 18.0548 44H81.9552Z" fill="#38DDE9"/>
<path d="M63.9287 26C65.0457 26 66.1119 26.467 66.8691 27.2881L81.4912 43.1445C82.1971 43.9103 82.1971 45.0897 81.4912 45.8555L51.6504 78.2158C51.7425 78.0787 51.8219 77.9256 51.8828 77.7559L63.6689 44.9229C63.8779 44.3409 63.8056 43.6945 63.4736 43.1729L50.5 26H63.9287Z" fill="#29B7C2"/>
<path d="M81.9561 44C82.1204 44.6378 81.9662 45.3401 81.4912 45.8555L51.6504 78.2158C51.7425 78.0787 51.8219 77.9256 51.8828 77.7559L63.6689 44.9229C63.7763 44.6237 63.8088 44.3075 63.7705 44H81.9561Z" fill="#13959F"/>
<path d="M79.7314 9.79883C92.0278 18.9078 100 33.5222 100 50C100 77.6142 77.6142 100 50 100C33.4166 100 18.7212 91.9249 9.625 79.4941L13.4346 66.2363C19.6606 80.2368 33.6894 90 50 90C72.0914 90 90 72.0914 90 50C90 33.4332 79.9284 19.2189 65.5742 13.1455L79.7314 9.79883Z" fill="#29B7C2"/>
<path d="M63.473 43.1729C63.805 43.6945 63.8772 44.3409 63.6683 44.9229L51.8822 77.7559C51.2483 79.5216 48.7514 79.5216 48.1175 77.7559L36.3304 44.9229C36.1215 44.3409 36.1938 43.6945 36.5257 43.1729L49 26H51L63.473 43.1729Z" fill="#38DDE9"/>
<path d="M63.7713 44C63.8095 44.3074 63.7771 44.6237 63.6697 44.9229L51.8826 77.7559C51.2488 79.5216 48.7518 79.5216 48.118 77.7559L36.3318 44.9229C36.2244 44.6237 36.192 44.3074 36.2303 44H63.7713Z" fill="#29B7C2"/>
<path d="M30.7485 23.8279C31.0381 22.4796 32.9619 22.4796 33.2515 23.8279L34.6547 30.3626C34.7604 30.8549 35.1451 31.2396 35.6374 31.3453L42.1721 32.7485C43.5204 33.0381 43.5204 34.9619 42.1721 35.2515L35.6374 36.6547C35.1451 36.7604 34.7604 37.1451 34.6547 37.6374L33.2515 44.1721C32.9619 45.5204 31.0381 45.5204 30.7485 44.1721L29.3453 37.6374C29.2396 37.1451 28.8549 36.7604 28.3626 36.6547L21.8279 35.2515C20.4796 34.9619 20.4796 33.0381 21.8279 32.7485L28.3626 31.3453C28.8549 31.2396 29.2396 30.8549 29.3453 30.3626L30.7485 23.8279Z" fill="white"/>
<path d="M68.0614 51.3709C68.2786 50.3597 69.7214 50.3597 69.9386 51.3709L70.991 56.2719C71.0703 56.6412 71.3588 56.9297 71.7281 57.009L76.6291 58.0614C77.6403 58.2786 77.6403 59.7214 76.6291 59.9386L71.7281 60.991C71.3588 61.0703 71.0703 61.3588 70.991 61.7281L69.9386 66.6291C69.7214 67.6403 68.2786 67.6403 68.0614 66.6291L67.009 61.7281C66.9297 61.3588 66.6412 61.0703 66.2719 60.991L61.3709 59.9386C60.3597 59.7214 60.3597 58.2786 61.3709 58.0614L66.2719 57.009C66.6412 56.9297 66.9297 56.6412 67.009 56.2719L68.0614 51.3709Z" fill="white"/>
<defs>
<filter id="filter0_d_1454_1153" x="7.99023" y="18" width="84.0303" height="73.0496" filterUnits="userSpaceOnUse" color-interpolation-filters="sRGB">
<feFlood flood-opacity="0" result="BackgroundImageFix"/>
<feColorMatrix in="SourceAlpha" type="matrix" values="0 0 0 0 0 0 0 0 0 0 0 0 0 0 0 0 0 0 127 0" result="hardAlpha"/>
<feOffset dy="2"/>
<feGaussianBlur stdDeviation="5"/>
<feComposite in2="hardAlpha" operator="out"/>
<feColorMatrix type="matrix" values="0 0 0 0 0 0 0 0 0 0 0 0 0 0 0 0 0 0 0.15 0"/>
<feBlend mode="normal" in2="BackgroundImageFix" result="effect1_dropShadow_1454_1153"/>
<feBlend mode="normal" in="SourceGraphic" in2="effect1_dropShadow_1454_1153" result="shape"/>
</filter>
</defs>
</svg>
