<svg width="100" height="100" viewBox="0 0 100 100" fill="none" xmlns="http://www.w3.org/2000/svg">
<circle cx="50" cy="50" r="45" fill="#B19218" stroke="#FFD322" stroke-width="10"/>
<g filter="url(#filter0_d_1465_1465)">
<path d="M46.6164 23.0479C47.4477 20.1513 51.5523 20.1513 52.3836 23.0479L56.5684 37.6298C56.9482 38.9532 58.1801 39.8482 59.556 39.8004L74.7175 39.2744C77.7292 39.1699 78.9976 43.0736 76.4996 44.7593L63.9246 53.2453C62.7833 54.0155 62.3128 55.4636 62.7834 56.7575L67.9688 71.0143C68.9989 73.8463 65.6782 76.259 63.3031 74.4042L51.3465 65.0669C50.2613 64.2195 48.7387 64.2195 47.6535 65.0669L35.6969 74.4042C33.3218 76.259 30.0011 73.8463 31.0311 71.0143L36.2166 56.7575C36.6872 55.4636 36.2167 54.0155 35.0754 53.2453L22.5004 44.7593C20.0024 43.0736 21.2708 39.1699 24.2825 39.2744L39.4439 39.8004C40.8199 39.8482 42.0518 38.9532 42.4316 37.6298L46.6164 23.0479Z" fill="#FFD322"/>
</g>
<path d="M49 20.916C50.3843 20.6929 51.9118 21.4031 52.3838 23.0478L56.5684 37.6298C56.9482 38.953 58.1799 39.8483 59.5557 39.8007L74.7178 39.2744C77.7291 39.1702 78.9972 43.0729 76.5 44.7587L63.9248 53.2451C62.7835 54.0152 62.3126 55.4639 62.7832 56.7578L67.9688 71.0146C68.9985 73.8465 65.6777 76.259 63.3027 74.4043L51.3467 65.0673C50.6649 64.5349 49.8102 64.336 49 64.4726V20.916Z" fill="#E4B700"/>
<path d="M79.7314 9.7998C92.0275 18.9088 100 33.5224 100 50C100 77.6142 77.6142 100 50 100C33.4168 100 18.7222 91.9246 9.62598 79.4941L13.4346 66.2363C19.6606 80.2368 33.6894 90 50 90C72.0914 90 90 72.0914 90 50C90 33.4332 79.9284 19.2189 65.5742 13.1455L79.7314 9.7998Z" fill="#D9AE00"/>
<defs>
<filter id="filter0_d_1465_1465" x="11.1719" y="12.8755" width="76.6562" height="74.1802" filterUnits="userSpaceOnUse" color-interpolation-filters="sRGB">
<feFlood flood-opacity="0" result="BackgroundImageFix"/>
<feColorMatrix in="SourceAlpha" type="matrix" values="0 0 0 0 0 0 0 0 0 0 0 0 0 0 0 0 0 0 127 0" result="hardAlpha"/>
<feOffset dy="2"/>
<feGaussianBlur stdDeviation="5"/>
<feComposite in2="hardAlpha" operator="out"/>
<feColorMatrix type="matrix" values="0 0 0 0 0 0 0 0 0 0 0 0 0 0 0 0 0 0 0.15 0"/>
<feBlend mode="normal" in2="BackgroundImageFix" result="effect1_dropShadow_1465_1465"/>
<feBlend mode="normal" in="SourceGraphic" in2="effect1_dropShadow_1465_1465" result="shape"/>
</filter>
</defs>
</svg>
