<svg width="18" height="16" viewBox="0 0 18 16" fill="none" xmlns="http://www.w3.org/2000/svg">
<path d="M15.6306 2.48768C15.2475 2.10443 14.7927 1.80041 14.2921 1.59299C13.7915 1.38557 13.2549 1.27881 12.7131 1.27881C12.1712 1.27881 11.6347 1.38557 11.1341 1.59299C10.6335 1.80041 10.1786 2.10443 9.79558 2.48768L9.00058 3.28268L8.20558 2.48768C7.43181 1.71391 6.38235 1.27921 5.28808 1.27921C4.1938 1.27921 3.14435 1.71391 2.37058 2.48768C1.59681 3.26145 1.16211 4.3109 1.16211 5.40518C1.16211 6.49945 1.59681 7.54891 2.37058 8.32268L3.16558 9.11768L9.00058 14.9527L14.8356 9.11768L15.6306 8.32268C16.0138 7.93961 16.3178 7.48479 16.5253 6.98419C16.7327 6.4836 16.8394 5.94704 16.8394 5.40518C16.8394 4.86331 16.7327 4.32676 16.5253 3.82616C16.3178 3.32557 16.0138 2.87074 15.6306 2.48768V2.48768Z" stroke="#595959" stroke-width="1.8" stroke-linecap="round" stroke-linejoin="round"/>
</svg>
