<svg width="54" height="34" viewBox="0 0 54 34" fill="none" xmlns="http://www.w3.org/2000/svg">
<path fill-rule="evenodd" clip-rule="evenodd" d="M0 22.8892V0H7.42354V7.12681C11.7804 3.00878 18.1792 0 26.9722 0C36.8121 0 43.4618 3.84434 47.5885 8.78747C51.5799 13.5684 53.0783 19.2147 53.0783 22.8892H45.6548C45.6548 20.8724 44.7158 16.9299 41.8898 13.545C39.1993 10.3222 34.6518 7.42354 26.9722 7.42354C19.2519 7.42354 14.4475 10.2854 11.5369 13.5346C8.49578 16.9294 7.42354 20.8511 7.42354 22.8892H0Z" fill="#272727"/>
<path d="M25.7914 16.3204C26.3261 15.0295 26.6013 12.2485 26.6013 12.2485C26.6013 12.2485 26.8766 15.0295 27.4113 16.3204C27.946 17.6114 28.7298 18.7844 29.7178 19.7724C30.7059 20.7605 31.8789 21.5443 33.1698 22.079C34.4608 22.6137 37.2417 22.8889 37.2417 22.8889C37.2417 22.8889 34.4608 23.1642 33.1698 23.6989C31.8789 24.2336 30.7059 25.0174 29.7178 26.0054C28.7298 26.9935 27.946 28.1665 27.4113 29.4574C26.8766 30.7484 26.6013 33.5293 26.6013 33.5293C26.6013 33.5293 26.3261 30.7484 25.7914 29.4574C25.2567 28.1665 24.4729 26.9935 23.4848 26.0054C22.4968 25.0174 21.3238 24.2336 20.0328 23.6989C18.7419 23.1642 15.9609 22.8889 15.9609 22.8889C15.9609 22.8889 18.7419 22.6137 20.0328 22.079C21.3238 21.5443 22.4968 20.7605 23.4848 19.7724C24.4729 18.7844 25.2567 17.6114 25.7914 16.3204Z" fill="#272727"/>
</svg>
