<svg width="100" height="100" viewBox="0 0 100 100" fill="none" xmlns="http://www.w3.org/2000/svg">
<circle cx="50" cy="50" r="45" fill="#008013" stroke="#18D93B" stroke-width="10"/>
<path d="M79.7314 9.79883C92.0278 18.9078 100 33.5222 100 50C100 77.6142 77.6142 100 50 100C33.4166 100 18.7212 91.9249 9.625 79.4941L13.4346 66.2363C19.6606 80.2368 33.6894 90 50 90C72.0914 90 90 72.0914 90 50C90 33.4332 79.9284 19.2189 65.5742 13.1455L79.7314 9.79883Z" fill="#02B81D"/>
<g filter="url(#filter0_d_1474_515)">
<path d="M49.2812 21.3055C49.8295 21.1547 50.4139 21.1797 50.9502 21.3807L72.6172 29.5057L72.8115 29.5877C73.7591 30.0295 74.3748 30.9838 74.375 32.0418V50.9998C74.375 60.3338 68.1946 67.7925 62.6162 72.6737C59.7702 75.1639 56.9367 77.1106 54.8203 78.4334C53.7594 79.0965 52.8712 79.6077 52.2422 79.9559C51.9277 80.13 51.6773 80.2642 51.502 80.3563C51.4145 80.4022 51.3448 80.4377 51.2959 80.4627C51.2719 80.475 51.2525 80.4848 51.2383 80.492L51.2129 80.5047L50 78.0838L51.2109 80.5057C50.4485 80.8869 49.5506 80.8869 48.7881 80.5057L50 78.0838L48.7871 80.5047L48.7842 80.5037L48.7793 80.5008L48.7031 80.4627C48.6542 80.4377 48.5846 80.4022 48.4971 80.3563C48.3217 80.2642 48.0713 80.13 47.7568 79.9559C47.1278 79.6077 46.2396 79.0965 45.1787 78.4334C43.0623 77.1106 40.2288 75.1639 37.3828 72.6737C31.8044 67.7925 25.625 60.3337 25.625 50.9998V32.0418C25.6252 30.9131 26.325 29.9021 27.3818 29.5057L49.0488 21.3807L49.2812 21.3055Z" fill="#18D93B"/>
</g>
<path d="M50 21.21C50.322 21.21 50.6439 21.2661 50.9502 21.3809L72.6172 29.5059L72.8115 29.5879C73.7591 30.0297 74.3748 30.984 74.375 32.042V51C74.3749 60.3339 68.1946 67.7927 62.6162 72.6738C59.7702 75.164 56.9367 77.1108 54.8203 78.4336C53.7595 79.0966 52.8712 79.6079 52.2422 79.9561C51.9277 80.1301 51.6773 80.2644 51.502 80.3564C51.4145 80.4024 51.3448 80.4379 51.2959 80.4629C51.2719 80.4752 51.2524 80.485 51.2383 80.4922L51.2129 80.5049L50 78.084L51.2109 80.5059C50.8299 80.6964 50.4149 80.7909 50 80.791V21.21Z" fill="#02B81D"/>
<path d="M35.7485 22.8279C36.0381 21.4796 37.9619 21.4796 38.2515 22.8279L39.6547 29.3626C39.7604 29.8549 40.1451 30.2396 40.6374 30.3453L47.1721 31.7485C48.5204 32.0381 48.5204 33.9619 47.1721 34.2515L40.6374 35.6547C40.1451 35.7604 39.7604 36.1451 39.6547 36.6374L38.2515 43.1721C37.9619 44.5204 36.0381 44.5204 35.7485 43.1721L34.3453 36.6374C34.2396 36.1451 33.8549 35.7604 33.3626 35.6547L26.8279 34.2515C25.4796 33.9619 25.4796 32.0381 26.8279 31.7485L33.3626 30.3453C33.8549 30.2396 34.2396 29.8549 34.3453 29.3626L35.7485 22.8279Z" fill="white"/>
<defs>
<filter id="filter0_d_1474_515" x="15.625" y="13.2085" width="68.75" height="79.583" filterUnits="userSpaceOnUse" color-interpolation-filters="sRGB">
<feFlood flood-opacity="0" result="BackgroundImageFix"/>
<feColorMatrix in="SourceAlpha" type="matrix" values="0 0 0 0 0 0 0 0 0 0 0 0 0 0 0 0 0 0 127 0" result="hardAlpha"/>
<feOffset dy="2"/>
<feGaussianBlur stdDeviation="5"/>
<feComposite in2="hardAlpha" operator="out"/>
<feColorMatrix type="matrix" values="0 0 0 0 0 0 0 0 0 0 0 0 0 0 0 0 0 0 0.15 0"/>
<feBlend mode="normal" in2="BackgroundImageFix" result="effect1_dropShadow_1474_515"/>
<feBlend mode="normal" in="SourceGraphic" in2="effect1_dropShadow_1474_515" result="shape"/>
</filter>
</defs>
</svg>
