<svg width="100" height="100" viewBox="0 0 100 100" fill="none" xmlns="http://www.w3.org/2000/svg">
<circle cx="50" cy="50" r="45" fill="#8029A2" stroke="#F592F2" stroke-width="10"/>
<path d="M79.7314 9.79883C92.0278 18.9078 100 33.5222 100 50C100 77.6142 77.6142 100 50 100C33.4166 100 18.7212 91.9249 9.625 79.4941L13.4346 66.2363C19.6606 80.2368 33.6894 90 50 90C72.0914 90 90 72.0914 90 50C90 33.4332 79.9284 19.2189 65.5742 13.1455L79.7314 9.79883Z" fill="#CE5EED"/>
<g filter="url(#filter0_d_1465_1401)">
<path d="M49.9951 26C50.5167 26 51.0294 26.1353 51.4835 26.3917C51.9377 26.6482 52.3183 27.0176 52.5877 27.4642L63.0681 44.8723L75.621 38.6221C76.1563 38.3545 76.7591 38.2523 77.3527 38.3279C77.9465 38.4036 78.5049 38.6537 78.9561 39.0471C79.4088 39.4382 79.7348 39.9552 79.8928 40.5322C80.0508 41.1091 80.0338 41.7201 79.8437 42.2872L70.5933 70.6207C70.5004 70.9061 70.3442 71.1671 70.1367 71.384C69.929 71.601 69.6745 71.7686 69.3933 71.874C69.1121 71.9794 68.8107 72.0202 68.5116 71.9932C68.2126 71.9662 67.9235 71.8722 67.6657 71.7182C67.6056 71.6817 61.2132 68.0006 49.9951 68.0006C38.7824 68.0006 32.3906 71.6783 32.3196 71.7207C32.0618 71.8733 31.7729 71.9663 31.4745 71.9924C31.1762 72.0184 30.8756 71.9771 30.5953 71.8715C30.3151 71.766 30.0623 71.5987 29.8553 71.3824C29.6483 71.1659 29.4925 70.9054 29.3995 70.6207L20.1491 42.2797C19.9643 41.7128 19.9509 41.1041 20.1108 40.5297C20.2708 39.9551 20.597 39.4403 21.0483 39.0504C21.4996 38.6606 22.0559 38.4128 22.6476 38.3379C23.2393 38.2631 23.8401 38.3643 24.3743 38.6296L36.9222 44.8798L47.4026 27.4642C47.672 27.0176 48.0526 26.6481 48.5068 26.3917C48.9609 26.1353 49.4736 26 49.9951 26Z" fill="#F592F2"/>
</g>
<path d="M50.4209 26.0312C50.7932 26.0843 51.1538 26.2055 51.4834 26.3916C51.9375 26.648 52.3185 27.0173 52.5879 27.4639L63.0684 44.8721L75.6211 38.6221C76.1563 38.3546 76.759 38.2526 77.3525 38.3281C77.9463 38.4038 78.5049 38.6536 78.9561 39.0469C79.4087 39.4379 79.7345 39.9553 79.8926 40.5322C80.0506 41.1091 80.0338 41.72 79.8438 42.2871L70.5938 70.6211C70.5008 70.9064 70.3441 71.167 70.1367 71.3838C69.9291 71.6007 69.6747 71.7686 69.3936 71.874C69.1124 71.9794 68.8107 72.0201 68.5117 71.9932C68.2127 71.9661 67.9238 71.8718 67.666 71.7178C67.6067 71.6817 61.3748 68.0962 50.4209 68.0049V26.0312Z" fill="#CE5EEE"/>
<path d="M21.7485 12.8279C22.0381 11.4796 23.9619 11.4796 24.2515 12.8279L25.6547 19.3626C25.7604 19.8549 26.1451 20.2396 26.6374 20.3453L33.1721 21.7485C34.5204 22.0381 34.5204 23.9619 33.1721 24.2515L26.6374 25.6547C26.1451 25.7604 25.7604 26.1451 25.6547 26.6374L24.2515 33.1721C23.9619 34.5204 22.0381 34.5204 21.7485 33.1721L20.3453 26.6374C20.2396 26.1451 19.8549 25.7604 19.3626 25.6547L12.8279 24.2515C11.4796 23.9619 11.4796 22.0381 12.8279 21.7485L19.3626 20.3453C19.8549 20.2396 20.2396 19.8549 20.3453 19.3626L21.7485 12.8279Z" fill="white"/>
<defs>
<filter id="filter0_d_1465_1401" x="10" y="18" width="80" height="66.0012" filterUnits="userSpaceOnUse" color-interpolation-filters="sRGB">
<feFlood flood-opacity="0" result="BackgroundImageFix"/>
<feColorMatrix in="SourceAlpha" type="matrix" values="0 0 0 0 0 0 0 0 0 0 0 0 0 0 0 0 0 0 127 0" result="hardAlpha"/>
<feOffset dy="2"/>
<feGaussianBlur stdDeviation="5"/>
<feComposite in2="hardAlpha" operator="out"/>
<feColorMatrix type="matrix" values="0 0 0 0 0 0 0 0 0 0 0 0 0 0 0 0 0 0 0.15 0"/>
<feBlend mode="normal" in2="BackgroundImageFix" result="effect1_dropShadow_1465_1401"/>
<feBlend mode="normal" in="SourceGraphic" in2="effect1_dropShadow_1465_1401" result="shape"/>
</filter>
</defs>
</svg>
