<svg width="520" height="664" viewBox="0 0 520 664" fill="none" xmlns="http://www.w3.org/2000/svg">
<g clip-path="url(#clip0_1540_2405)">
<path d="M0 7.99999C0 3.58172 3.58172 0 8 0H520V664H8C3.58172 664 0 660.418 0 656V7.99999Z" fill="#4848FF"/>
<path fill-rule="evenodd" clip-rule="evenodd" d="M0 690V-183H181.885V290.272C295.851 176.69 466.948 92.0297 705.95 92.0297C964.027 92.0297 1137.81 192.757 1245.53 321.781C1349.93 446.831 1389 594.461 1389 690H1207.11C1207.11 635.062 1181.74 529.172 1105.89 438.32C1033.36 351.443 911.09 273.888 705.95 273.888C499.813 273.888 370.825 350.4 292.481 437.855C210.941 528.878 181.885 634.26 181.885 690H0Z" fill="#3F3FF0"/>
</g>
<defs>
<clipPath id="clip0_1540_2405">
<path d="M0 7.99999C0 3.58172 3.58172 0 8 0H520V664H8C3.58172 664 0 660.418 0 656V7.99999Z" fill="white"/>
</clipPath>
</defs>
</svg>
