<svg width="20" height="21" viewBox="0 0 20 21" fill="none" xmlns="http://www.w3.org/2000/svg">
<g id="reply">
<path id="Vector" d="M12.745 5.6661C12.5886 5.50975 12.5008 5.2977 12.5008 5.0766C12.5008 4.85549 12.5886 4.64344 12.745 4.4871C12.9013 4.33075 13.1134 4.24292 13.3345 4.24292C13.5556 4.24292 13.7676 4.33075 13.924 4.4871L18.091 8.6541C18.2472 8.81031 18.3349 9.02218 18.3349 9.2431C18.3349 9.46402 18.2472 9.67588 18.091 9.8321L13.924 13.9991C13.8466 14.0765 13.7548 14.1379 13.6537 14.1799C13.5526 14.2218 13.4443 14.2434 13.3348 14.2434C13.1138 14.2435 12.9018 14.1558 12.7455 13.9996C12.5891 13.8434 12.5012 13.6315 12.5011 13.4105C12.501 13.1894 12.5888 12.9774 12.745 12.8211L15.423 10.1431C12.846 9.9241 9.97097 10.2401 7.65997 11.1121C4.97897 12.1231 3.33497 13.7521 3.33497 15.9101C3.33497 16.1312 3.24715 16.3432 3.09084 16.4995C2.93453 16.6558 2.72253 16.7436 2.50147 16.7436C2.28041 16.7436 2.06841 16.6558 1.9121 16.4995C1.75578 16.3432 1.66797 16.1312 1.66797 15.9101C1.66797 12.7061 4.14797 10.6551 7.07097 9.5521C9.63897 8.5841 12.764 8.2451 15.562 8.4821L12.745 5.6661Z" fill="#595959"/>
</g>
</svg>
