<svg width="100" height="100" viewBox="0 0 100 100" fill="none" xmlns="http://www.w3.org/2000/svg">
<circle cx="50" cy="50" r="45" fill="#A81D34" stroke="#FF4D71" stroke-width="10"/>
<path d="M79.7314 9.79883C92.0278 18.9078 100 33.5222 100 50C100 77.6142 77.6142 100 50 100C33.4166 100 18.7212 91.9249 9.625 79.4941L13.4346 66.2363C19.6606 80.2368 33.6894 90 50 90C72.0914 90 90 72.0914 90 50C90 33.4332 79.9284 19.2189 65.5742 13.1455L79.7314 9.79883Z" fill="#CD294A"/>
<g filter="url(#filter0_d_1465_1432)">
<path d="M77.1934 24.7563C77.38 23.8872 78.62 23.8872 78.8066 24.7563L79.6558 28.7108C79.7239 29.0282 79.9718 29.2761 80.2892 29.3442L84.2437 30.1934C85.1128 30.38 85.1128 31.62 84.2437 31.8066L80.2892 32.6558C79.9718 32.7239 79.7239 32.9718 79.6558 33.2892L78.8066 37.2437C78.62 38.1128 77.38 38.1128 77.1934 37.2437L76.3442 33.2892C76.2761 32.9718 76.0282 32.7239 75.7108 32.6558L71.7563 31.8066C70.8872 31.62 70.8872 30.38 71.7563 30.1934L75.7108 29.3442C76.0282 29.2761 76.2761 29.0282 76.3442 28.7108L77.1934 24.7563Z" fill="white"/>
<path d="M24 42C24 39.2386 26.2386 37 29 37H71C73.7614 37 76 39.2386 76 42V60.6483C76 61.5335 75.7662 62.4059 75.2278 63.1086C72.9511 66.0803 65.4354 74 50 74C34.5646 74 27.0489 66.0803 24.7722 63.1086C24.2338 62.4059 24 61.5335 24 60.6483V42Z" fill="#EB244C"/>
<mask id="mask0_1465_1432" style="mask-type:alpha" maskUnits="userSpaceOnUse" x="24" y="37" width="52" height="37">
<path d="M24 42C24 39.2386 26.2386 37 29 37H71C73.7614 37 76 39.2386 76 42V60.6483C76 61.5335 75.7662 62.4059 75.2278 63.1086C72.9511 66.0803 65.4354 74 50 74C34.5646 74 27.0489 66.0803 24.7722 63.1086C24.2338 62.4059 24 61.5335 24 60.6483V42Z" fill="#D9526D"/>
</mask>
<g mask="url(#mask0_1465_1432)">
<rect x="63" y="51" width="4" height="21" fill="#CD294A"/>
</g>
<path d="M16.2549 42.7594C14.8563 42.0034 14.8563 39.9966 16.2549 39.2406L49.049 21.5141C49.6424 21.1933 50.3576 21.1933 50.951 21.5141L83.7451 39.2406C85.1437 39.9966 85.1437 42.0034 83.7451 42.7594L50.951 60.4859C50.3576 60.8067 49.6424 60.8067 49.049 60.4859L16.2549 42.7594Z" fill="#FF4D71"/>
<path d="M54 41L68.5451 49.9148C69.1384 50.2784 69.5 50.9242 69.5 51.62V76.5" stroke="#FF8EA5" stroke-width="5" stroke-linecap="round" stroke-linejoin="round"/>
<mask id="mask1_1465_1432" style="mask-type:alpha" maskUnits="userSpaceOnUse" x="15" y="21" width="70" height="40">
<path d="M16.4932 42.3193C15.477 41.77 15.4448 40.3406 16.3975 39.7363L16.4922 39.6807L49.2871 21.9541C49.6764 21.7438 50.1352 21.7173 50.542 21.875L50.7129 21.9541L83.5078 39.6807C84.5235 40.2301 84.5551 41.6595 83.6025 42.2637L83.5078 42.3193L50.7129 60.0459C50.3236 60.2562 49.8648 60.2827 49.458 60.125L49.2871 60.0459L16.4922 42.3203L16.4932 42.3193Z" fill="#666666" stroke="#FFB4C3"/>
</mask>
<g mask="url(#mask1_1465_1432)">
<path d="M54 41L68.5451 49.9148C69.1384 50.2784 69.5 50.9242 69.5 51.62V76.5" stroke="#FFB4C3" stroke-width="5" stroke-linecap="round" stroke-linejoin="round"/>
</g>
<path d="M49.7939 73.7256L49.0761 73.7197C34.1255 73.4792 26.8078 65.7604 24.5663 62.835C24.028 62.1323 23.7939 61.2592 23.7939 60.374V46.6719L16.0488 42.4854C14.6504 41.7293 14.6504 39.7229 16.0488 38.9668L48.8427 21.2402C49.1024 21.0999 49.3859 21.0204 49.6718 21.0029C49.7125 21.0004 49.7532 21 49.7939 21V73.7256Z" fill="#FFB4C3" fill-opacity="0.2"/>
</g>
<path d="M21.4798 56.251C21.7158 55.1518 23.2842 55.1518 23.5202 56.251L25.01 63.1888C25.0962 63.5902 25.4098 63.9038 25.8112 63.99L32.749 65.4798C33.8482 65.7158 33.8482 67.2842 32.749 67.5202L25.8112 69.01C25.4098 69.0962 25.0962 69.4098 25.01 69.8112L23.5202 76.749C23.2842 77.8482 21.7158 77.8482 21.4798 76.749L19.99 69.8112C19.9038 69.4098 19.5902 69.0962 19.1888 69.01L12.251 67.5202C11.1518 67.2842 11.1518 65.7158 12.251 65.4798L19.1888 63.99C19.5902 63.9038 19.9038 63.5902 19.99 63.1888L21.4798 56.251Z" fill="white"/>
<path d="M29.6934 11.7563C29.88 10.8872 31.12 10.8872 31.3066 11.7563L32.421 16.9456C32.4891 17.263 32.737 17.5109 33.0544 17.579L38.2437 18.6934C39.1128 18.88 39.1128 20.12 38.2437 20.3066L33.0544 21.421C32.737 21.4891 32.4891 21.737 32.421 22.0544L31.3066 27.2437C31.12 28.1128 29.88 28.1128 29.6934 27.2437L28.579 22.0544C28.5109 21.737 28.263 21.4891 27.9456 21.421L22.7563 20.3066C21.8872 20.12 21.8872 18.88 22.7563 18.6934L27.9456 17.579C28.263 17.5109 28.5109 17.263 28.579 16.9456L29.6934 11.7563Z" fill="white"/>
<defs>
<filter id="filter0_d_1465_1432" x="5" y="6" width="89.8955" height="85" filterUnits="userSpaceOnUse" color-interpolation-filters="sRGB">
<feFlood flood-opacity="0" result="BackgroundImageFix"/>
<feColorMatrix in="SourceAlpha" type="matrix" values="0 0 0 0 0 0 0 0 0 0 0 0 0 0 0 0 0 0 127 0" result="hardAlpha"/>
<feOffset dy="2"/>
<feGaussianBlur stdDeviation="5"/>
<feComposite in2="hardAlpha" operator="out"/>
<feColorMatrix type="matrix" values="0 0 0 0 0 0 0 0 0 0 0 0 0 0 0 0 0 0 0.15 0"/>
<feBlend mode="normal" in2="BackgroundImageFix" result="effect1_dropShadow_1465_1432"/>
<feBlend mode="normal" in="SourceGraphic" in2="effect1_dropShadow_1465_1432" result="shape"/>
</filter>
</defs>
</svg>
