<svg width="24" height="24" viewBox="0 0 24 24" fill="none" xmlns="http://www.w3.org/2000/svg">
<g id="search">
<path id="Vector" d="M11 5.0001C10.2121 5.0001 9.43185 5.15529 8.7039 5.45682C7.97595 5.75835 7.31451 6.20031 6.75736 6.75746C6.20021 7.31461 5.75825 7.97605 5.45672 8.704C5.15519 9.43195 5 10.2122 5 11.0001C5 11.788 5.15519 12.5682 5.45672 13.2962C5.75825 14.0242 6.20021 14.6856 6.75736 15.2427C7.31451 15.7999 7.97595 16.2418 8.7039 16.5434C9.43185 16.8449 10.2121 17.0001 11 17.0001C12.5913 17.0001 14.1174 16.368 15.2426 15.2427C16.3679 14.1175 17 12.5914 17 11.0001C17 9.4088 16.3679 7.88268 15.2426 6.75746C14.1174 5.63224 12.5913 5.0001 11 5.0001ZM3 11.0001C3.00002 9.72692 3.30392 8.47213 3.88644 7.34002C4.46896 6.20791 5.31327 5.23119 6.34919 4.49102C7.38512 3.75085 8.58275 3.26863 9.84254 3.08442C11.1023 2.90021 12.3879 3.01934 13.5924 3.43191C14.7968 3.84448 15.8855 4.53857 16.7677 5.4565C17.65 6.37442 18.3005 7.48967 18.665 8.70954C19.0296 9.92941 19.0977 11.2187 18.8638 12.4702C18.6299 13.7217 18.1006 14.8993 17.32 15.9051L20.707 19.2931C20.8892 19.4817 20.99 19.7343 20.9877 19.9965C20.9854 20.2587 20.8802 20.5095 20.6948 20.6949C20.5094 20.8803 20.2586 20.9855 19.9964 20.9878C19.7342 20.9901 19.4816 20.8893 19.293 20.7071L15.906 17.3201C14.7235 18.2382 13.307 18.806 11.8178 18.9591C10.3285 19.1121 8.82619 18.8442 7.48165 18.1858C6.1371 17.5274 5.00429 16.5049 4.21202 15.2346C3.41976 13.9643 2.99983 12.4972 3 11.0001Z" fill="#272727"/>
</g>
</svg>
