<svg width="100" height="100" viewBox="0 0 100 100" fill="none" xmlns="http://www.w3.org/2000/svg">
<circle cx="50" cy="50" r="45" fill="#8C98A1" stroke="#D9D9D9" stroke-width="10"/>
<g filter="url(#filter0_d_1454_1129)">
<path d="M46.5669 25.6592C47.2455 22.499 51.7545 22.499 52.4331 25.6592L55.722 40.9748C55.9698 42.1288 56.8712 43.0302 58.0252 43.278L73.3408 46.5669C76.501 47.2455 76.501 51.7545 73.3408 52.4331L58.0252 55.722C56.8712 55.9698 55.9698 56.8712 55.722 58.0252L52.4331 73.3408C51.7545 76.501 47.2455 76.501 46.5669 73.3408L43.278 58.0252C43.0302 56.8712 42.1288 55.9698 40.9748 55.722L25.6592 52.4331C22.499 51.7545 22.499 47.2455 25.6592 46.5669L40.9748 43.278C42.1288 43.0302 43.0302 42.1288 43.278 40.9748L46.5669 25.6592Z" fill="#D9D9D9"/>
</g>
<path d="M50 23.3291C51.1156 23.5067 52.1381 24.283 52.4336 25.6592L55.7217 40.9746C55.9695 42.1286 56.8714 43.0305 58.0254 43.2783L73.3408 46.5664C76.501 47.245 76.501 51.755 73.3408 52.4336L58.0254 55.7217C56.8714 55.9695 55.9695 56.8714 55.7217 58.0254L52.4336 73.3408C52.1381 74.7169 51.1156 75.4923 50 75.6699V23.3291Z" fill="#B8C1C5"/>
<path d="M79.7314 9.79883C92.0278 18.9078 100 33.5222 100 50C100 77.6142 77.6142 100 50 100C33.4166 100 18.7212 91.9249 9.625 79.4941L13.4346 66.2363C19.6606 80.2368 33.6894 90 50 90C72.0914 90 90 72.0914 90 50C90 33.4332 79.9284 19.2189 65.5742 13.1455L79.7314 9.79883Z" fill="#B8C1C5"/>
<defs>
<filter id="filter0_d_1454_1129" x="13.2891" y="15.2891" width="72.4219" height="72.4219" filterUnits="userSpaceOnUse" color-interpolation-filters="sRGB">
<feFlood flood-opacity="0" result="BackgroundImageFix"/>
<feColorMatrix in="SourceAlpha" type="matrix" values="0 0 0 0 0 0 0 0 0 0 0 0 0 0 0 0 0 0 127 0" result="hardAlpha"/>
<feOffset dy="2"/>
<feGaussianBlur stdDeviation="5"/>
<feComposite in2="hardAlpha" operator="out"/>
<feColorMatrix type="matrix" values="0 0 0 0 0 0 0 0 0 0 0 0 0 0 0 0 0 0 0.15 0"/>
<feBlend mode="normal" in2="BackgroundImageFix" result="effect1_dropShadow_1454_1129"/>
<feBlend mode="normal" in="SourceGraphic" in2="effect1_dropShadow_1454_1129" result="shape"/>
</filter>
</defs>
</svg>
