<svg width="79" height="45" viewBox="0 0 79 45" fill="none" xmlns="http://www.w3.org/2000/svg">
<g clip-path="url(#clip0_953_666)">
<path fill-rule="evenodd" clip-rule="evenodd" d="M0.558838 6.6109C0.558838 5.73481 1.27376 5.02458 2.15567 5.02458H12.3718V7.80065H3.35329V41.3588H12.3718V44.1348H2.15567C1.27376 44.1348 0.558838 43.4246 0.558838 42.5485V6.6109Z" fill="black"/>
<path fill-rule="evenodd" clip-rule="evenodd" d="M55.5149 5.00961H65.2472V7.78568H58.3092V36.255H65.2472V39.031H55.5149V5.00961Z" fill="black"/>
<path fill-rule="evenodd" clip-rule="evenodd" d="M50.4817 1.60071C50.4817 0.724622 51.1966 0.0143967 52.0785 0.0143967H65.2472V2.79046H53.276V41.2691H65.2472V44.0451H52.0785C51.1966 44.0451 50.4817 43.3349 50.4817 42.4588V1.60071Z" fill="black"/>
<path fill-rule="evenodd" clip-rule="evenodd" d="M48.2675 1.60071C48.2675 0.724617 47.5525 0.0143967 46.6705 0.0143967H36.8552C35.9731 0.0143967 35.2582 0.724615 35.2582 1.60071V44.0531H38.0528V13.805H46.6705C47.5525 13.805 48.2675 13.0948 48.2675 12.2187V1.60071ZM38.0528 11.0289V2.79046H45.4729V11.0289H38.0528Z" fill="black"/>
<path fill-rule="evenodd" clip-rule="evenodd" d="M31.4469 5.02458C32.3288 5.02458 33.0437 5.73481 33.0437 6.6109V44.0531H30.2494V7.80065H22.4439V44.0531H19.6494V6.6109C19.6494 5.73481 20.3643 5.02458 21.2463 5.02458H31.4469Z" fill="black"/>
<path fill-rule="evenodd" clip-rule="evenodd" d="M0.557373 0.0143814H33.0438V2.79042H17.4146V44.1334H14.6201V2.79042H0.557373V0.0143814Z" fill="black"/>
<path fill-rule="evenodd" clip-rule="evenodd" d="M61.1161 0.0143814H78.5054V2.79043H70.4017V44.0531H67.6071V2.79043H61.1161V0.0143814Z" fill="black"/>
<path fill-rule="evenodd" clip-rule="evenodd" d="M40.2991 16.0182H48.2447V18.7942H45.7262V44.046H42.9319V18.7942H40.2991V16.0182Z" fill="black"/>
<path fill-rule="evenodd" clip-rule="evenodd" d="M31.5786 25.9598H22.3331V23.1838H31.5786V25.9598Z" fill="black"/>
<path fill-rule="evenodd" clip-rule="evenodd" d="M65.3779 25.96H57.9302V23.184H65.3779V25.96Z" fill="black"/>
</g>
<defs>
<clipPath id="clip0_953_666">
<rect width="77.9718" height="44.135" fill="white" transform="translate(0.545166)"/>
</clipPath>
</defs>
</svg>
