<svg width="520" height="600" viewBox="0 0 520 600" fill="none" xmlns="http://www.w3.org/2000/svg">
<g clip-path="url(#clip0_1540_2377)">
<path d="M0 7.99999C0 3.58171 3.58172 0 8 0H520V600H8C3.58172 600 0 596.418 0 592V7.99999Z" fill="#4848FF"/>
<path fill-rule="evenodd" clip-rule="evenodd" d="M0 600V-273H181.885V200.272C295.851 86.6897 466.948 2.02966 705.95 2.02966C964.027 2.02966 1137.81 102.757 1245.53 231.781C1349.93 356.831 1389 504.461 1389 600H1207.11C1207.11 545.062 1181.74 439.172 1105.89 348.32C1033.36 261.443 911.09 183.888 705.95 183.888C499.813 183.888 370.825 260.4 292.481 347.855C210.941 438.878 181.885 544.26 181.885 600H0Z" fill="#3F3FF0"/>
</g>
<defs>
<clipPath id="clip0_1540_2377">
<path d="M0 7.99999C0 3.58171 3.58172 0 8 0H520V600H8C3.58172 600 0 596.418 0 592V7.99999Z" fill="white"/>
</clipPath>
</defs>
</svg>
